<svg xmlns="http://www.w3.org/2000/svg" width="41" height="24" viewBox="0 0 41 24">
  <g fill="none" fill-rule="evenodd">
    <path fill="#00022D" d="M13.8211382,5.78861789 L5.20325203,5.78861789 L5.20325203,10.1788618 L13.6585366,10.1788618 L13.6585366,15.1869919 L5.20325203,15.1869919 L5.20325203,23.5447154 L1.0658141e-14,23.5447154 L1.0658141e-14,0.780487805 L13.8211382,0.780487805 L13.8211382,5.78861789 Z M28.4674797,23.5447154 L24.1747967,16.0650407 L21.703252,16.0650407 L21.703252,23.5447154 L16.5,23.5447154 L16.5,0.780487805 L25.6056911,0.780487805 C29.9308943,0.780487805 33.4105691,4.2601626 33.4105691,8.58536585 C33.4105691,11.3821138 31.7195122,13.9186992 29.2154472,15.1869919 L34.0609756,23.5447154 L28.4674797,23.5447154 Z M21.6422766,5.65853659 L21.6422766,11.5121951 L25.5447156,11.5121951 C26.9756099,11.5121951 28.1463416,10.2439024 28.1463416,8.58536585 C28.1463416,6.92682927 26.9756099,5.65853659 25.5447156,5.65853659 L21.6422766,5.65853659 Z"/>
    <circle cx="37.5" cy="20.55" r="3" fill="#D0021B"/>
  </g>
</svg>
