<svg id="Layer_1" data-name="Layer 1" xmlns="http://www.w3.org/2000/svg" viewBox="0 0 1366.54 746.63"><defs><style>.cls-1{fill:#215593;stroke:#0041a2;}.cls-1,.cls-2,.cls-3,.cls-5{stroke-miterlimit:10;}.cls-2,.cls-3{fill:#bd89b9;}.cls-2{stroke:#c4c4c4;}.cls-3,.cls-5{stroke:#d4d4d4;}.cls-4,.cls-5{fill:none;}</style></defs><title>lifesaver</title><path class="cls-1" d="M.08,181.11c27.94-4.35,68.81-13,104.28-31.57,48.16-25.22,52-50.77,79-51.51,39.93-1.11,54.69,54.29,107.45,56.5,31.9,1.33,33.77-14.64,101.12-28.25,41.59-8.41,39.09-1.23,89-10.16C536.1,106.25,546.11,96.23,581.54,98c35,1.77,59.88,13.31,66.32,16.45a158.28,158.28,0,0,1,64.35,57.59"/><path class="cls-1" d="M697.42,93.09c22.83-4.32,56.22-12.87,85.2-31.26,39.34-25,42.52-50.27,64.54-51,32.63-1.09,44.68,53.76,87.78,55.94,34.07,1.73,50.58-31.32,82.62-28,33.46,3.51,36.25,41.74,62,42.78,36.39,1.47,65.15-73.8,92.94-70.75,15.48,1.7,11.12,19.6,33.56,32.91,34.54,20.48,69.4-5.82,111.36,14.81a87.86,87.86,0,0,1,26.09,19.74"/><path class="cls-1" d="M20.08,298.76c15.37-4.32,37.86-12.87,57.38-31.27,26.51-25,28.64-50.26,43.48-51,22-1.09,30.09,53.76,59.13,55.94,22.94,1.72,34.06-31.32,55.64-28,22.55,3.5,24.43,41.74,41.74,42.78,24.52,1.47,43.88-73.81,62.61-70.75,8.79,1.44,7.14,18.49,22.6,32.91s33,4.34,52.17,16.45c12.79,8.09,19.2,20.43,22.61,29.62"/><path class="cls-1" d="M1002.62,186.87c15.38-4.31,37.87-12.86,57.39-31.26,26.5-25,28.64-50.26,43.48-51,22-1.1,30.09,53.76,59.12,55.94,23,1.72,34.07-31.33,55.65-28,22.54,3.5,24.42,41.74,41.74,42.78,24.51,1.46,43.88-73.81,62.6-70.75,1.91.31,6.47,1.37,22.61,32.9,9.47,18.51,16.27,34.47,20.87,46.07"/><path class="cls-1" d="M990.45,348.12c14.12-4.32,34.78-12.87,52.71-31.27,24.34-25,26.3-50.26,39.93-51,20.19-1.09,27.64,53.76,54.31,55.94,21.08,1.72,31.29-31.32,51.11-28,20.71,3.5,22.43,41.74,38.34,42.78,22.52,1.47,40.3-73.81,57.5-70.75,7.72,1.37,9,14,20.77,32.91,13.7,22,31.86,35.95,45.31,44.42"/><path class="cls-1" d="M163.54,84c19-4.36,46.88-13,71-31.57C267.39,27.25,270,1.7,288.4,1c27.2-1.1,37.25,54.3,73.19,56.5C388.16,59.08,399.84,29,430.48,29.2c23.16.14,41.84,17.37,53.82,31.58C527.43,7.69,548.47-1.91,559.64,1c11.79,3,9.74,19.18,28,33.24,20.85,16.07,41.71,2.73,64.58,16.62,13.8,8.38,21.1,21.54,25.22,32.41"/><path class="cls-2" d="M759.39,301.78l-85.61.33q3.13,38.82,6.26,77.66H751.4Q755.39,340.77,759.39,301.78Z"/><path class="cls-3" d="M673.88,668.19l85.6.14-5.79-77.69-71.36-.39Q678.1,629.22,673.88,668.19Z"/><path class="cls-3" d="M902.63,520.56l-1-81.61-81.41,6.53.51,68Z"/><path class="cls-3" d="M530.6,438.59l1.87,81.59,81.33-7.35-1.27-68Z"/><path class="cls-4" d="M612.21,444.37c0-35.74,27.23-64.66,60.87-64.66"/><path class="cls-5" d="M614,512.34c0,43.08,30.34,77.93,67.82,77.93"/><path class="cls-5" d="M753.07,590.27c37.59-.08,67.92-34.19,67.82-76.27"/><path class="cls-5" d="M680,379.71c-37.81.31-68.15,30-67.82,66.31"/><path class="cls-5" d="M820.89,446c.52-36.14-30.59-65.8-69.56-66.31"/><path class="cls-5" d="M530.48,439.39c0-76.06,65.33-137.61,146.08-137.61"/><path class="cls-5" d="M532.22,520.63c0,81.56,63,147.56,140.86,147.56"/><path class="cls-5" d="M760.29,668.46c79-.27,142.65-66.39,142.34-147.83"/><path class="cls-5" d="M901.76,438.56C901.76,362.5,838,301,759.16,301"/><path class="cls-5" d="M596.2,745.53c38.3,7.74,57.84-62,113.89-74.64,59.33-13.4,85.59,53.59,150.67,48.1,78.32-6.6,152.83-113.11,129.66-169.19-16.27-39.36-71.67-32.17-84.1-71.33-15.25-48,61.56-79.2,56.06-139.33C956.61,276,864.67,215.21,810,231.32c-38.26,11.26-33.22,52.75-75.15,66.32-46,14.88-71.08-28.86-138.61-28.17-48.28.49-114.67,23.65-124.39,61.37C459,380.56,543.22,455.51,527.87,491.62c-.43,1-2.3,5.21-4.81,11.47-5.21,13-10.85,28.37-14.44,44.93-2.13,9.8-3.15,21.78-1.77,38.27,5.49,65.51,44.35,114.94,57.82,131.05C579.31,734.85,586.63,743.6,596.2,745.53Z"/><path class="cls-5" d="M734.81,768.5"/></svg>