<?xml version="1.0" encoding="utf-8"?>
<!-- Generator: Adobe Illustrator 23.0.3, SVG Export Plug-In . SVG Version: 6.00 Build 0)  -->
<svg version="1.1" id="Layer_1" xmlns="http://www.w3.org/2000/svg" xmlns:xlink="http://www.w3.org/1999/xlink" x="0px" y="0px"
	 viewBox="0 0 1366 768" style="enable-background:new 0 0 1366 768;" xml:space="preserve">
<style type="text/css">
	.st0{fill:#FFCCFF;stroke:#660099;stroke-miterlimit:10;}
	.st1{fill:#8C5BEB;stroke:#660099;stroke-miterlimit:10;}
	.st2{fill:#F0B9EB;stroke:#660099;stroke-miterlimit:10;}
	.st3{fill:#5535DB;stroke:#6100A0;stroke-miterlimit:10;}
	.st4{fill:#FFFFFF;stroke:#660099;stroke-miterlimit:10;}
	.st5{fill:#F1DCF2;}
	.st6{fill:#FFCCFF;}
</style>
<path class="st0" d="M34,189.6c27.9-4.4,68.8-13,104.3-31.6c48.2-25.2,52-50.8,79-51.5c39.9-1.1,54.7,54.3,107.4,56.5
	c31.9,1.3,33.8-14.6,101.1-28.3c41.6-8.4,39.1-1.2,89-10.2c55.2-9.9,65.2-19.9,100.6-18.1c35,1.8,59.9,13.3,66.3,16.5
	c36.4,17.7,56,44.5,64.3,57.6"/>
<path class="st1" d="M683.3,87.6c22.8-4.3,56.2-12.9,85.2-31.3c39.3-25,42.5-50.3,64.5-51c32.6-1.1,44.7,53.8,87.8,55.9
	c34.1,1.7,50.6-31.3,82.6-28c33.5,3.5,36.3,41.7,62,42.8c36.4,1.5,65.1-73.8,92.9-70.7c15.5,1.7,11.1,19.6,33.6,32.9
	c34.5,20.5,69.4-5.8,111.4,14.8c12.6,6.2,21.1,14.2,26.1,19.7"/>
<path class="st0" d="M270,324.3c15.4-4.3,37.9-12.9,57.4-31.3c26.5-25,28.6-50.3,43.5-51c22-1.1,30.1,53.8,59.1,55.9
	c22.9,1.7,34.1-31.3,55.6-28c22.5,3.5,24.4,41.7,41.7,42.8c24.5,1.5,43.9-73.8,62.6-70.7c8.8,1.4,7.1,18.5,22.6,32.9
	c15.4,14.3,33,4.3,52.2,16.5c12.8,8.1,19.2,20.4,22.6,29.6"/>
<path class="st2" d="M988.5,181.4c15.4-4.3,37.9-12.9,57.4-31.3c26.5-25,28.6-50.3,43.5-51c22-1.1,30.1,53.8,59.1,55.9
	c22.9,1.7,34.1-31.3,55.6-28c22.5,3.5,24.4,41.7,41.7,42.8c24.5,1.5,43.9-73.8,62.6-70.7c1.9,0.3,6.5,1.4,22.6,32.9
	c9.5,18.5,16.3,34.5,20.9,46.1"/>
<path class="st3" d="M976.4,342.6c14.1-4.3,34.8-12.9,52.7-31.3c24.3-25,26.3-50.3,39.9-51c20.2-1.1,27.6,53.8,54.3,55.9
	c21.1,1.7,31.3-31.3,51.1-28c20.7,3.5,22.4,41.7,38.3,42.8c22.5,1.5,40.3-73.8,57.5-70.7c7.7,1.4,9,14,20.8,32.9
	c13.7,22,31.9,36,45.3,44.4"/>
<path class="st0" d="M150.5,85.5c19-4.4,46.9-13,71-31.6C254.3,28.7,257,3.2,275.3,2.5c27.2-1.1,37.3,54.3,73.2,56.5
	c26.6,1.6,38.2-28.4,68.9-28.2c23.2,0.1,41.8,17.4,53.8,31.6c43.1-53.1,64.2-62.7,75.3-59.8c11.8,3,9.7,19.2,28,33.2
	c20.8,16.1,41.7,2.7,64.6,16.6c13.8,8.4,21.1,21.5,25.2,32.4"/>
<path class="st4" d="M95,675.6c15.4-4.3,38-12.9,57.6-31.4c26.6-25.1,28.7-50.4,43.6-51.2c22.1-1.1,30.2,54,59.3,56.1
	c23,1.7,34.2-31.4,55.8-28.1c22.6,3.5,24.5,41.9,41.9,42.9c24.6,1.5,44-74.1,62.8-71c8.8,1.4,7.2,18.6,22.7,33
	c15.4,14.4,33.2,4.4,52.4,16.5c6.5,4.1,15,17.4,22.7,29.7c0.9,1.5,1.6,2.7,2.1,3.5"/>
<path class="st3" d="M17,481.6c17.7-4.3,43.7-12.9,66.2-31.3c30.6-25,33.1-50.3,50.2-51c25.4-1.1,34.7,53.8,68.2,55.9
	c26.5,1.7,39.3-31.3,64.2-28c26,3.5,28.2,41.7,48.2,42.8c28.3,1.5,50.6-73.8,72.3-70.7c9.7,1.4,11.3,14,26.1,32.9
	c17.2,22,40,36,56.9,44.4"/>
<path class="st4" d="M819,600.3c15.4-4.3,37.9-12.9,57.4-31.3c26.5-25,28.6-50.3,43.5-51c22-1.1,30.1,53.8,59.1,55.9
	c22.9,1.7,34.1-31.3,55.6-28c22.5,3.5,24.4,41.7,41.7,42.8c24.5,1.5,43.9-73.8,62.6-70.7c8.8,1.4,7.1,18.5,22.6,32.9
	c16.2,15.1,34.6,3.5,52.2,16.5c11.3,8.3,16.3,21.3,18.7,32.2"/>
<path class="st1" d="M940,492.6c6.7-4.3,16.4-12.9,24.8-31.3c11.5-25,12.4-50.3,18.8-51c9.5-1.1,13,53.8,25.6,55.9
	c9.9,1.7,14.7-31.3,24.1-28c9.8,3.5,10.6,41.7,18.1,42.8c10.6,1.5,19-73.8,27.1-70.7c4.5,1.7,3.2,19.6,9.8,32.9
	c10.1,20.5,20.2-5.8,32.5,14.8c5.7,9.6,4.4,14.3,7.6,19.7c2.8,4.7,9.6,10.3,27.7,13.7"/>
<path class="st0" d="M1376.5,698.5"/>
<g>
	<path class="st5" d="M0.5,767.5c49.3-28.5,124.8-72.6,225-83c148-15.4,195.4,42.8,343,48c191.9,6.8,227.2-87.4,406-94
		c89-3.3,225.8,18.8,391,129"/>
	<line class="st6" x1="0.5" y1="767.5" x2="1365.5" y2="767.5"/>
</g>
</svg>
