<svg xmlns="http://www.w3.org/2000/svg" viewBox="0 0 528.23 521.44"><defs><style>.cls-1,.cls-2{fill:none;stroke:#d4d4d4;stroke-miterlimit:10;}.cls-2{stroke-width:4px;}</style></defs><title>Asset 1</title><g id="Layer_2" data-name="Layer 2"><g id="Layer_1-2" data-name="Layer 1"><path class="cls-1" d="M62,212.7c0-76.06,65.34-137.61,146.08-137.61"/><path class="cls-2" d="M127.73,518.84c38.29,7.73,57.83-62,113.88-74.64,59.33-13.41,85.59,53.59,150.68,48.1,78.32-6.61,152.82-113.11,129.65-169.19-16.26-39.36-71.66-32.17-84.1-71.33-15.24-48,61.56-79.21,56.07-139.34C488.13,49.31,396.2-11.49,341.48,4.62c-38.25,11.27-33.21,52.75-75.14,66.32-46,14.88-71.09-28.85-138.61-28.16-48.29.49-114.68,23.65-124.4,61.37C-9.48,153.87,74.75,228.81,59.39,264.93c-.43,1-2.3,5.2-4.81,11.46-5.21,13-10.85,28.38-14.44,44.94C38,331.12,37,343.1,38.37,359.6c5.49,65.5,44.36,114.94,57.82,131C110.83,508.15,118.15,516.91,127.73,518.84Z"/></g></g></svg>