<svg xmlns="http://www.w3.org/2000/svg" viewBox="0 0 1366.54 762.24"><defs><style>.cls-1{fill:#fcf;}.cls-1,.cls-2,.cls-3,.cls-5{stroke:#609;}.cls-1,.cls-2,.cls-3,.cls-4,.cls-5{stroke-miterlimit:10;}.cls-2{fill:#8c5beb;}.cls-3{fill:#f0b9eb;}.cls-4{fill:#5535db;stroke:#6100a0;}.cls-5{fill:#fff;}</style></defs><title>waves</title><g id="Layer_2" data-name="Layer 2"><g id="Layer_1-2" data-name="Layer 1"><path class="cls-1" d="M.08,174.11c27.94-4.35,68.81-13,104.28-31.57,48.16-25.22,52-50.77,79-51.51,39.93-1.11,54.69,54.29,107.45,56.5,31.9,1.33,33.77-14.64,101.12-28.25,41.59-8.41,39.09-1.23,89-10.16C536.1,99.25,546.11,89.23,581.54,91c35,1.77,59.88,13.31,66.32,16.45a158.28,158.28,0,0,1,64.35,57.59"/><path class="cls-2" d="M697.42,86.09c22.83-4.32,56.22-12.87,85.2-31.26,39.34-25,42.52-50.27,64.54-51,32.63-1.09,44.68,53.76,87.78,55.94,34.07,1.73,50.58-31.32,82.62-28,33.46,3.51,36.25,41.74,62,42.78,36.39,1.47,65.15-73.8,92.94-70.75,15.48,1.7,11.12,19.6,33.56,32.91,34.54,20.48,69.4-5.82,111.36,14.81a87.86,87.86,0,0,1,26.09,19.74"/><path class="cls-1" d="M165.08,290.76c15.37-4.32,37.86-12.87,57.38-31.27,26.51-25,28.64-50.26,43.48-51,22-1.09,30.09,53.76,59.13,55.94,22.94,1.72,34.06-31.32,55.64-28,22.55,3.5,24.43,41.74,41.74,42.78,24.52,1.47,43.88-73.81,62.61-70.75,8.79,1.44,7.14,18.49,22.6,32.91s33,4.34,52.17,16.45c12.79,8.09,19.2,20.43,22.61,29.62"/><path class="cls-3" d="M1002.62,179.87c15.38-4.31,37.87-12.86,57.39-31.26,26.5-25,28.64-50.26,43.48-51,22-1.1,30.09,53.76,59.12,55.94,23,1.72,34.07-31.33,55.65-28,22.54,3.5,24.42,41.74,41.74,42.78,24.51,1.46,43.88-73.81,62.6-70.75,1.91.31,6.47,1.37,22.61,32.9,9.47,18.51,16.27,34.47,20.87,46.07"/><path class="cls-4" d="M990.45,341.12c14.12-4.32,34.78-12.87,52.71-31.27,24.34-25,26.3-50.26,39.93-51,20.19-1.09,27.64,53.76,54.31,55.94,21.08,1.72,31.29-31.32,51.11-28,20.71,3.5,22.43,41.74,38.34,42.78,22.52,1.47,40.3-73.81,57.5-70.75,7.72,1.37,9,14,20.77,32.91,13.7,22,31.86,35.95,45.31,44.42"/><path class="cls-1" d="M164.54,84c19-4.36,46.88-13,71-31.57C268.39,27.25,271,1.7,289.4,1c27.2-1.1,37.25,54.3,73.19,56.5C389.16,59.08,400.84,29,431.48,29.2c23.16.14,41.84,17.37,53.82,31.58C528.43,7.69,549.47-1.91,560.64,1c11.79,3,9.74,19.18,28,33.24,20.85,16.07,41.71,2.73,64.58,16.62,13.8,8.38,21.1,21.54,25.22,32.41"/><path class="cls-5" d="M129.08,761.05c15.43-4.33,38-12.91,57.59-31.37,26.6-25.06,28.74-50.45,43.63-51.19,22-1.1,30.2,54,59.34,56.14,23,1.73,34.19-31.44,55.85-28.07,22.62,3.52,24.5,41.89,41.88,42.93,24.6,1.48,44-74.07,62.83-71,8.83,1.44,7.17,18.55,22.69,33S506,715.88,525.24,728c6.46,4.08,15,17.36,22.69,29.72.92,1.47,1.65,2.71,2.15,3.55"/><path class="cls-4" d="M31.08,480.12c17.75-4.32,43.7-12.87,66.23-31.27,30.59-25,33.06-50.26,50.18-51,25.37-1.09,34.74,53.76,68.25,55.94,26.48,1.72,39.32-31.32,64.23-28,26,3.5,28.18,41.74,48.17,42.78,28.29,1.47,50.65-73.81,72.26-70.75,9.69,1.37,11.26,14,26.09,32.91,17.22,22,40,35.95,56.94,44.42"/><path class="cls-5" d="M950.08,761.76c15.37-4.32,37.86-12.87,57.38-31.27,26.51-25,28.64-50.26,43.48-51,22-1.09,30.09,53.76,59.13,55.94,22.94,1.72,34.06-31.32,55.64-28,22.55,3.5,24.43,41.74,41.74,42.78,24.52,1.47,43.88-73.81,62.61-70.75,8.79,1.44,7.14,18.49,22.6,32.91,16.19,15.09,34.62,3.54,52.17,16.45,11.32,8.33,16.32,21.32,18.75,32.15"/><path class="cls-2" d="M954.08,491.09c6.65-4.32,16.38-12.87,24.83-31.26,11.46-25,12.39-50.27,18.81-51,9.5-1.09,13,53.76,25.58,55.94,9.93,1.73,14.74-31.32,24.08-28,9.75,3.51,10.56,41.74,18.06,42.78,10.6,1.47,19-73.8,27.08-70.75,4.51,1.7,3.24,19.6,9.78,32.91,10.07,20.48,20.23-5.82,32.46,14.81,5.7,9.62,4.37,14.29,7.6,19.74,2.77,4.67,9.58,10.27,27.72,13.72"/></g></g></svg>